<svg width="443" height="242" viewBox="0 0 443 242" fill="none" xmlns="http://www.w3.org/2000/svg">
<path d="M126.037 94.728C120.213 94.728 115.253 93.768 111.157 91.848C107.061 89.928 103.925 87.272 101.749 83.88C99.5734 80.488 98.4854 76.648 98.4854 72.36H107.893C107.893 74.472 108.437 76.584 109.525 78.696C110.677 80.808 112.565 82.568 115.189 83.976C117.877 85.384 121.493 86.088 126.037 86.088C130.261 86.088 133.717 85.48 136.405 84.264C139.093 82.984 141.077 81.352 142.357 79.368C143.637 77.32 144.277 75.112 144.277 72.744C144.277 69.864 143.029 67.496 140.533 65.64C138.037 63.72 134.389 62.536 129.589 62.088L121.813 61.416C115.605 60.904 110.645 58.984 106.933 55.656C103.221 52.328 101.365 47.944 101.365 42.504C101.365 38.216 102.389 34.472 104.437 31.272C106.549 28.072 109.461 25.576 113.173 23.784C116.885 21.928 121.205 21 126.133 21C130.997 21 135.285 21.896 138.997 23.688C142.709 25.48 145.589 28.008 147.637 31.272C149.749 34.472 150.805 38.312 150.805 42.792H141.397C141.397 40.552 140.853 38.44 139.765 36.456C138.741 34.472 137.109 32.84 134.869 31.56C132.629 30.28 129.717 29.64 126.133 29.64C122.677 29.64 119.797 30.248 117.493 31.464C115.253 32.68 113.557 34.28 112.405 36.264C111.317 38.184 110.773 40.264 110.773 42.504C110.773 45.064 111.765 47.336 113.749 49.32C115.733 51.304 118.677 52.456 122.581 52.776L130.357 53.448C135.157 53.832 139.285 54.856 142.741 56.52C146.261 58.12 148.949 60.296 150.805 63.048C152.725 65.736 153.685 68.968 153.685 72.744C153.685 77.032 152.533 80.84 150.229 84.168C147.925 87.496 144.693 90.088 140.533 91.944C136.373 93.8 131.541 94.728 126.037 94.728ZM169.473 93V22.92H181.953L202.689 69.672H204.225L224.865 22.92H237.441V93H228.033V33.192L228.705 33.384L208.833 78.504H197.313L177.345 33.384L178.113 33.192V93H169.473ZM250.297 93L275.545 22.92H291.481L317.497 93H307.801L284.281 29.064L288.889 31.368H277.561L282.457 29.064L259.705 93H250.297ZM265.369 72.072L268.537 63.624H298.777L301.945 72.072H265.369ZM330.348 93V22.536H339.756V93H330.348ZM373.644 93L350.412 61.8H361.452L385.068 93H373.644ZM336.204 67.656V59.304H355.02C357.964 59.304 360.492 58.696 362.604 57.48C364.716 56.264 366.348 54.6 367.5 52.488C368.652 50.312 369.228 47.848 369.228 45.096C369.228 42.344 368.652 39.912 367.5 37.8C366.348 35.624 364.716 33.928 362.604 32.712C360.492 31.432 357.964 30.792 355.02 30.792H336.204V22.536H353.292C358.412 22.536 362.892 23.304 366.732 24.84C370.572 26.376 373.548 28.744 375.66 31.944C377.772 35.144 378.828 39.272 378.828 44.328V45.864C378.828 50.92 377.74 55.048 375.564 58.248C373.452 61.448 370.476 63.816 366.636 65.352C362.86 66.888 358.412 67.656 353.292 67.656H336.204ZM409.699 93V29.448H419.107V93H409.699ZM388.387 31.368V22.92H440.419V31.368H388.387ZM103.332 214V143.536H112.74V214H103.332ZM146.628 214L123.396 182.8H134.436L158.052 214H146.628ZM109.188 188.656V180.304H128.004C130.948 180.304 133.476 179.696 135.588 178.48C137.7 177.264 139.332 175.6 140.484 173.488C141.636 171.312 142.212 168.848 142.212 166.096C142.212 163.344 141.636 160.912 140.484 158.8C139.332 156.624 137.7 154.928 135.588 153.712C133.476 152.432 130.948 151.792 128.004 151.792H109.188V143.536H126.276C131.396 143.536 135.876 144.304 139.716 145.84C143.556 147.376 146.532 149.744 148.644 152.944C150.756 156.144 151.812 160.272 151.812 165.328V166.864C151.812 171.92 150.724 176.048 148.548 179.248C146.436 182.448 143.46 184.816 139.62 186.352C135.844 187.888 131.396 188.656 126.276 188.656H109.188ZM170.551 214V143.92H179.959V214H170.551ZM178.039 214V205.552H212.023V214H178.039ZM178.039 182.608V174.16H209.047V182.608H178.039ZM178.039 152.368V143.92H211.063V152.368H178.039ZM257.983 215.728C251.583 215.728 246.111 214.608 241.567 212.368C237.087 210.128 233.471 207.216 230.719 203.632C227.967 200.048 225.951 196.176 224.671 192.016C223.391 187.792 222.751 183.728 222.751 179.824V177.712C222.751 173.488 223.391 169.264 224.671 165.04C226.015 160.816 228.063 156.976 230.815 153.52C233.567 150.064 237.151 147.28 241.567 145.168C245.983 143.056 251.263 142 257.407 142C263.679 142 269.055 143.088 273.535 145.264C278.015 147.44 281.567 150.48 284.191 154.384C286.815 158.288 288.415 162.896 288.991 168.208H279.391C278.879 164.24 277.599 160.976 275.551 158.416C273.503 155.792 270.911 153.84 267.775 152.56C264.703 151.28 261.247 150.64 257.407 150.64C253.247 150.64 249.599 151.376 246.463 152.848C243.327 154.256 240.703 156.272 238.591 158.896C236.543 161.456 234.975 164.432 233.887 167.824C232.863 171.216 232.351 174.896 232.351 178.864C232.351 182.64 232.863 186.224 233.887 189.616C234.975 193.008 236.575 196.016 238.687 198.64C240.863 201.264 243.551 203.344 246.751 204.88C249.951 206.352 253.695 207.088 257.983 207.088C263.999 207.088 269.055 205.584 273.151 202.576C277.247 199.568 279.743 195.216 280.639 189.52H290.239C289.599 194.32 287.967 198.704 285.343 202.672C282.783 206.64 279.199 209.808 274.591 212.176C270.047 214.544 264.511 215.728 257.983 215.728ZM304.056 214V143.92H313.464V214H304.056ZM341.539 189.616V181.36H357.187C360.515 181.36 363.267 180.72 365.443 179.44C367.619 178.096 369.251 176.304 370.339 174.064C371.491 171.824 372.067 169.328 372.067 166.576C372.067 163.76 371.491 161.232 370.339 158.992C369.251 156.752 367.619 154.992 365.443 153.712C363.267 152.432 360.515 151.792 357.187 151.792H341.539V143.536H355.459C361.219 143.536 366.019 144.464 369.859 146.32C373.763 148.112 376.707 150.672 378.691 154C380.675 157.328 381.667 161.264 381.667 165.808V167.344C381.667 171.824 380.675 175.76 378.691 179.152C376.707 182.48 373.763 185.072 369.859 186.928C366.019 188.72 361.219 189.616 355.459 189.616H341.539ZM334.051 214V143.536H343.459V214H334.051ZM395.457 214V143.92H404.865V214H395.457ZM402.945 214V205.552H436.929V214H402.945ZM402.945 182.608V174.16H433.953V182.608H402.945ZM402.945 152.368V143.92H435.969V152.368H402.945Z" fill="black"/>
<path d="M153.481 95.313C156.143 80.3435 161.113 39.5337 162 21C158.318 26.5986 153.887 31.258 148.819 35.2792C150.202 37.7208 150.286 40.2465 150.286 41.6738H142.021V40.0834C134.917 44.5736 126.86 48.2396 118.077 51.6995C118.88 52.9946 121 53.6122 127.922 53.6122C133.46 53.6122 136.619 54.1468 141.234 55.7507C155.078 60.5623 157.207 79.5118 146.026 87.8283C134.525 96.3823 119.591 93.8873 113.828 91.5706C99.327 103.059 73.0417 124.92 57.6386 143.964C37.5853 168.757 15.5745 214 15.5745 214C17.1719 211.861 23.3484 206.301 35.2754 201.169C50.1842 194.753 57.6386 194.219 74.6772 189.407C83.7158 186.855 94.3357 183.447 103.962 178.715V142.895H131.65C131.65 142.895 136.974 142.895 138.039 145.033C146.021 129.019 151.033 109.078 153.481 95.313Z" fill="black"/>
<path d="M2.79563 201.169C2.79563 201.169 34.4268 151.808 57.6386 128.994C73.5369 113.369 97.0124 98.7933 111.416 90.546C107.512 88.9273 99.7022 83.1235 99.7022 72.8587H107.157C107.157 81.4127 115.321 85.2448 119.403 86.0916C122.426 84.4525 124.196 83.5512 124.196 83.5512C124.196 83.5512 122.834 84.5651 120.468 86.3844C128.632 87.4003 144.961 85.6898 144.961 72.8587C144.961 69.1163 143.364 62.268 131.117 61.097C119.936 60.0277 112.002 59.4931 108.78 55.2161C94.7343 60.3629 79.1964 65.5237 62.9628 72.8587C22.9473 90.9392 -9.98351 143.964 2.79563 201.169Z" fill="black"/>
<path d="M126.858 161.607C129.536 158.519 131.657 156.228 134 152.5C132.5 151.449 130 151.449 130 151.449L112.481 151.449V173.959C117.652 170.656 122.442 166.697 126.858 161.607Z" fill="black"/>
<path d="M144.961 72.8587C144.961 85.6898 128.632 87.4003 120.468 86.3844C118.742 87.7116 116.482 89.4673 113.828 91.5706C119.591 93.8873 134.525 96.3823 146.026 87.8283C157.207 79.5118 155.078 60.5623 141.234 55.7507C136.619 54.1468 133.46 53.6122 127.922 53.6122C121 53.6122 118.88 52.9946 118.077 51.6995C115.06 52.8877 111.959 54.0515 108.78 55.2161C112.002 59.4931 119.936 60.0277 131.117 61.097C143.364 62.268 144.961 69.1163 144.961 72.8587Z" fill="white"/>
<path d="M142.021 40.0834V41.6738H150.286C150.286 40.2465 150.202 37.7208 148.819 35.2792C146.665 36.9881 144.396 38.5819 142.021 40.0834Z" fill="white"/>
<path d="M99.7022 72.8587C99.7022 83.1235 107.512 88.9273 111.416 90.546C114.572 88.7389 117.293 87.2355 119.403 86.0916C115.321 85.2448 107.157 81.4127 107.157 72.8587H99.7022Z" fill="white"/>
<path d="M103.962 142.895V178.715C106.908 177.266 109.748 175.704 112.481 173.959V151.449L130 151.449C130 151.449 132.5 151.449 134 152.5C135.269 150.482 136.91 147.299 138.039 145.033C136.974 142.895 131.65 142.895 131.65 142.895H103.962Z" fill="white"/>
</svg>
